<?xml version="1.0" encoding="UTF-8" standalone="no"?>
<!-- Created with Inkscape (http://www.inkscape.org/) -->

<svg
   xmlns:dc="http://purl.org/dc/elements/1.1/"
   xmlns:cc="http://creativecommons.org/ns#"
   xmlns:rdf="http://www.w3.org/1999/02/22-rdf-syntax-ns#"
   xmlns:svg="http://www.w3.org/2000/svg"
   xmlns="http://www.w3.org/2000/svg"
   xmlns:sodipodi="http://sodipodi.sourceforge.net/DTD/sodipodi-0.dtd"
   xmlns:inkscape="http://www.inkscape.org/namespaces/inkscape"
   version="1.1"
   id="svg3731"
   width="330.88"
   height="330.88"
   viewBox="0 0 330.88 330.88"
   sodipodi:docname="Bicycle.svg"
   inkscape:version="0.92.4 (5da689c313, 2019-01-14)">
  <metadata
     id="metadata3737">
    <rdf:RDF>
      <cc:Work
         rdf:about="">
        <dc:format>image/svg+xml</dc:format>
        <dc:type
           rdf:resource="http://purl.org/dc/dcmitype/StillImage" />
        <dc:title></dc:title>
      </cc:Work>
    </rdf:RDF>
  </metadata>
  <defs
     id="defs3735" />
  <sodipodi:namedview
     pagecolor="#ffffff"
     bordercolor="#666666"
     borderopacity="1"
     objecttolerance="10"
     gridtolerance="10"
     guidetolerance="10"
     inkscape:pageopacity="0"
     inkscape:pageshadow="2"
     inkscape:window-width="1920"
     inkscape:window-height="1001"
     id="namedview3733"
     showgrid="false"
     inkscape:zoom="1.7267356"
     inkscape:cx="166.7118"
     inkscape:cy="128.69246"
     inkscape:window-x="-9"
     inkscape:window-y="-9"
     inkscape:window-maximized="1"
     inkscape:current-layer="svg3731" />
  <path
     style="fill:#000000;stroke-width:0.99737209"
     d="M 80.658261,235.93222 C 63.770489,231.10496 50.025197,217.2393 45.519614,200.48585 43.696528,193.70693 43.81231,180.63141 45.75364,174.0568 c 6.385907,-21.62683 26.490433,-36.78574 48.703842,-36.72294 7.298598,0.0206 17.147778,2.52217 23.584308,5.99005 3.0094,1.6214 5.786,2.948 6.17022,2.948 1.03571,0 13.94625,-16.02159 13.94625,-17.30687 0,-0.97706 -2.65706,-10.73855 -4.46771,-16.41346 -0.64777,-2.03022 -0.37494,-2.0907 9.43171,-2.0907 8.27481,0 10.2081,-0.28343 10.70413,-1.56926 1.09412,-2.83627 -2.00866,-4.09589 -14.16813,-5.75178 -15.85783,-2.15955 -16.35709,-2.13515 -17.5,0.85515 -1.28857,3.3714 -5,3.4318 -5,0.0814 0,-3.74259 1.00769,-5.50535 4.03836,-7.064344 2.4843,-1.27794 4.50499,-1.195969 18.12648,0.735311 17.40087,2.467123 19.83516,3.716653 19.83516,10.181463 0,6.02028 -3.42748,8.22509 -13.58687,8.7401 l -5.08688,0.25787 1.58688,4.91663 1.58687,4.91663 31.09839,-0.27133 c 26.68083,-0.23278 31.31335,-0.0575 32.61167,1.23402 0.83231,0.82794 2.81095,4.46842 4.39699,8.08995 2.47088,5.64197 3.17069,6.49049 4.88833,5.92703 18.41045,-6.03938 30.17118,-5.69175 44.50462,1.31553 6.73174,3.29099 17.56262,13.85089 21.23047,20.6993 5.65795,10.56422 7.31682,24.93295 4.23662,36.69655 -4.60372,17.58209 -20.38792,32.52992 -38.26631,36.23866 -28.07546,5.82404 -55.78319,-13.17186 -60.32052,-41.35462 -1.28934,-8.00848 -0.84463,-10.2679 2.02097,-10.2679 2.22388,0 2.66682,1.13674 3.59039,9.21401 1.27693,11.16769 9.75928,23.88871 20.50838,30.75652 4.99649,3.19235 15.63913,6.78277 20.10534,6.78277 h 2.89466 v -20.3924 c 0,-16.56807 -0.25601,-20.3924 -1.36514,-20.3924 -3.7914,0 -6.72479,-4.80932 -18.16274,-29.77795 -6.53261,-14.26046 -12.14922,-25.92811 -12.48136,-25.92811 -0.33213,0 -10.70343,12.30468 -23.04732,27.34372 -13.40811,16.33561 -23.13273,27.34851 -24.15562,27.35565 -1.90455,0.0133 -2.76939,-2.50679 -11.85786,-34.55276 -2.98648,-10.53034 -5.65496,-19.1253 -5.92996,-19.09991 -0.275,0.0254 -8.375,9.67186 -18,21.43664 -21.04751,25.72666 -20.30032,24.97864 -23.336499,23.36225 -3.620291,-1.92735 -8.667124,-0.98413 -10.92826,2.04241 -1.69354,2.2668 -1.805914,3.09879 -0.819944,6.07062 0.672937,2.02832 2.177574,3.91293 3.660684,4.58514 3.433984,1.55641 3.423574,1.56276 3.42744,-2.09163 0.0028,-2.69255 1.768661,-0.15684 10.564019,15.16995 5.80832,10.12159 10.91368,18.7604 11.34523,19.19735 1.15285,1.16728 10.57749,-6.59848 14.58976,-12.02174 4.09848,-5.53978 7.36738,-13.60986 8.10043,-19.99784 0.90553,-7.89102 1.33323,-9.06229 3.3092,-9.06229 2.70777,0 3.22916,2.34388 2.0939,9.41302 -1.95858,12.19587 -6.25793,20.68148 -14.63244,28.87999 -12.7021,12.43516 -31.992477,17.39733 -48.873519,12.572 z m 12.947384,-18.49881 c 0.394005,-7.9129 0.42797,-14.85128 0.07548,-15.41864 -0.352495,-0.56735 -1.567282,-1.03155 -2.699528,-1.03155 -2.76829,0 -9.795412,-7.12979 -9.934027,-10.07916 -0.515262,-10.96345 4.20144,-16.25866 14.391888,-16.15707 l 5.781192,0.0576 9.01797,-10.83083 c 4.95989,-5.95695 9.25224,-11.43812 9.53857,-12.18035 0.7645,-1.98181 -10.75375,-7.21611 -18.86893,-8.57472 -23.069358,-3.86217 -46.001173,12.23433 -50.875826,35.71118 -1.652232,7.95733 -0.06513,19.66136 3.762709,27.74789 6.034907,12.7491 23.333952,24.80608 35.978623,25.07616 l 3.115505,0.0666 z m 171.681185,5.83783 c 9.56689,-6.98588 16.52245,-19.74386 17.57392,-32.23429 2.36396,-28.08171 -23.83868,-52.43767 -51.4166,-47.79295 -3.73224,0.62859 -8.44382,1.90275 -10.47017,2.83147 l -3.68428,1.68857 7.93534,17.3075 c 4.36444,9.51912 8.41755,17.88546 9.00691,18.59186 0.58935,0.70641 2.05137,1.42315 3.24893,1.59278 1.70928,0.2421 2.1577,0.94997 2.08583,3.29265 -0.063,2.05426 3.03508,8.48672 9.94148,20.64109 5.51817,9.71126 10.22407,17.65683 10.45757,17.65683 0.2335,0 2.62798,-1.60898 5.32107,-3.57551 z m -85.20942,-66.55444 20.06736,-24.3714 h -27.56064 c -25.77872,0 -27.52719,0.11256 -27.04313,1.74081 0.28464,0.95745 3.25773,11.36503 6.60687,23.12797 6.90757,24.26096 6.78756,23.87402 7.4049,23.87402 0.2515,0 9.48759,-10.96713 20.52464,-24.3714 z m 40.2613,-32.54126 c 0.22278,-1.53471 1.22805,-2.38665 3.31955,-2.81323 11.70222,-2.38672 14.22472,-16.33781 4.01119,-22.184521 -1.10616,-0.633216 -6.28619,-1.37512 -11.51119,-1.648677 -8.66667,-0.453745 -9.5,-0.671893 -9.5,-2.486877 0,-1.833539 0.76195,-2.011793 9.71958,-2.273847 11.16306,-0.326574 15.894,1.320908 19.91202,6.934074 3.48496,4.868488 3.8217,14.095388 0.68221,18.692748 -3.36641,4.92966 -8.34928,7.98168 -13.03124,7.98168 -3.47708,0 -3.88544,-0.24956 -3.60212,-2.20135 z"
     id="path3743"
     inkscape:connector-curvature="0" />
</svg>
